<svg id="Original" xmlns="http://www.w3.org/2000/svg" viewBox="0 0 295.96 114.59"><defs><style>.cls-1{fill:#005176;}.cls-2{fill:#ee3b25;}.cls-3{fill:#f79838;}.cls-4{fill:#19a0db;}.cls-5{fill:#0d7a9f;}.cls-6{fill:#016698;}.cls-7{fill:#056489;}</style></defs><title>PHP Benelux Logo - Original</title><g id="Layer_1" data-name="Layer 1"><path class="cls-1" d="M122.74,23.15H156.5c21.86,0,26,13.71,26,23s-4.18,22.85-26,22.75H136.14V97.31h-13.4Zm13.4,35.1h19.61c6,0,13.4-2.91,13.4-12.25,0-9.77-6.11-12.26-13.19-12.26H136.14Z" transform="translate(-16.66 -21.67)"/><path class="cls-1" d="M185.32,23.15h13.4V52.64h34.83V23.15h13.39V97.31H233.55V63.86H198.72V97.31h-13.4Z" transform="translate(-16.66 -21.67)"/><path class="cls-1" d="M252.3,23.15h33.75c21.86,0,26,13.71,26,23s-4.18,22.85-26,22.75H265.69V97.31H252.3Zm13.39,35.1H285.3c6,0,13.4-2.91,13.4-12.25,0-9.77-6.11-12.26-13.18-12.26H265.69Z" transform="translate(-16.66 -21.67)"/><path class="cls-2" d="M103.68,103.41h15c6.08,0,10.19,2,10.19,8a7,7,0,0,1-4.34,6.69c3.89,1.13,5.85,4.14,5.85,8.14,0,6.51-5.49,9.3-11.25,9.3H103.68Zm7,13h7.1c2.46,0,4.29-1.12,4.29-3.82,0-3-2.33-3.68-4.83-3.68h-6.56Zm0,13.62h7.5c2.77,0,5.18-.9,5.18-4.23s-2.05-4.58-5-4.58h-7.64Z" transform="translate(-16.66 -21.67)"/><path class="cls-2" d="M135.56,103.41h23.85v5.94H142.57v6.87H158v5.48H142.57v7.87h17.2v5.93H135.56Z" transform="translate(-16.66 -21.67)"/><path class="cls-3" d="M164.94,103.41h7l13.31,21.53h.09V103.41h6.56V135.5h-7L171.6,114h-.09V135.5h-6.57Z" transform="translate(-16.66 -21.67)"/><path class="cls-3" d="M196.69,103.41h23.85v5.94H203.7v6.87h15.46v5.48H203.7v7.87h17.2v5.93H196.69Z" transform="translate(-16.66 -21.67)"/><path class="cls-4" d="M226.08,103.41h7v26.16h15.54v5.93H226.08Z" transform="translate(-16.66 -21.67)"/><path class="cls-4" d="M279.17,123.37c0,8.67-5.09,12.89-13.62,12.89S252,132.08,252,123.37v-20h7v20c0,3.5.89,7,6.56,7,5,0,6.61-2.2,6.61-7v-20h7Z" transform="translate(-16.66 -21.67)"/><path class="cls-4" d="M293.46,118.69l-10.27-15.28h8.13l6.25,10.25,6.48-10.25h7.68L301.5,118.74l11.12,16.76h-8.35l-7-11.1-7.1,11.1h-7.91Z" transform="translate(-16.66 -21.67)"/></g><g id="Layer_2" data-name="Layer 2"><path class="cls-4" d="M19.23,54.32a5.79,5.79,0,0,1-2.57-4.52l.08-15.41a5.75,5.75,0,0,1,2.63-4.48l13.39-7.64a5.78,5.78,0,0,1,5.19,0l13.31,7.78a5.79,5.79,0,0,1,2.57,4.52L53.74,50a5.71,5.71,0,0,1-2.62,4.48L37.73,62.13a5.78,5.78,0,0,1-5.19,0Z" transform="translate(-16.66 -21.67)"/><path class="cls-5" d="M60.65,55a5.79,5.79,0,0,1-2.57-4.52L58.16,35a5.75,5.75,0,0,1,2.62-4.48L74.17,22.9a5.8,5.8,0,0,1,5.2,0l13.3,7.78a5.77,5.77,0,0,1,2.58,4.51l-.09,15.42a5.75,5.75,0,0,1-2.62,4.48L79.15,62.75a5.74,5.74,0,0,1-5.2,0Z" transform="translate(-16.66 -21.67)"/><path class="cls-6" d="M39,91.76a5.79,5.79,0,0,1-2.57-4.52l.08-15.41a5.75,5.75,0,0,1,2.63-4.48l13.38-7.63a5.77,5.77,0,0,1,5.2,0L71,67.52A5.77,5.77,0,0,1,73.59,72L73.5,87.45a5.79,5.79,0,0,1-2.62,4.49L57.49,99.57a5.8,5.8,0,0,1-5.2,0Z" transform="translate(-16.66 -21.67)"/><path class="cls-7" d="M80.41,91.16a5.74,5.74,0,0,1-2.58-4.51l.09-15.41a5.79,5.79,0,0,1,2.62-4.49l13.39-7.63a5.74,5.74,0,0,1,5.2,0l13.3,7.78A5.76,5.76,0,0,1,115,71.44l-.08,15.41a5.77,5.77,0,0,1-2.63,4.49L98.91,99a5.77,5.77,0,0,1-5.2,0Z" transform="translate(-16.66 -21.67)"/><path class="cls-1" d="M60.15,127.41a5.77,5.77,0,0,1-2.58-4.52l.09-15.41A5.75,5.75,0,0,1,60.28,103l13.39-7.64a5.78,5.78,0,0,1,5.19,0l13.31,7.78a5.78,5.78,0,0,1,2.57,4.52l-.08,15.41A5.74,5.74,0,0,1,92,127.58l-13.39,7.63a5.72,5.72,0,0,1-5.19,0Z" transform="translate(-16.66 -21.67)"/></g></svg>