<?xml version="1.0" encoding="UTF-8" standalone="no"?>
<!-- Created with Inkscape (http://www.inkscape.org/) -->

<svg
   xmlns:dc="http://purl.org/dc/elements/1.1/"
   xmlns:cc="http://creativecommons.org/ns#"
   xmlns:rdf="http://www.w3.org/1999/02/22-rdf-syntax-ns#"
   xmlns:svg="http://www.w3.org/2000/svg"
   xmlns="http://www.w3.org/2000/svg"
   xmlns:sodipodi="http://sodipodi.sourceforge.net/DTD/sodipodi-0.dtd"
   xmlns:inkscape="http://www.inkscape.org/namespaces/inkscape"
   width="422.19351"
   height="155.28314"
   viewBox="0 0 111.70537 41.08533"
   version="1.1"
   id="svg8"
   inkscape:version="0.92.2 5c3e80d, 2017-08-06"
   sodipodi:docname="phpbenelux_logo.svg">
  <defs
     id="defs2" />
  <sodipodi:namedview
     id="base"
     pagecolor="#ffffff"
     bordercolor="#666666"
     borderopacity="1.0"
     inkscape:pageopacity="0.7254902"
     inkscape:pageshadow="2"
     inkscape:zoom="0.80886903"
     inkscape:cx="516.35264"
     inkscape:cy="-197.4553"
     inkscape:document-units="px"
     inkscape:current-layer="layer2"
     showgrid="false"
     units="px"
     inkscape:pagecheckerboard="true"
     inkscape:measure-start="0,0"
     inkscape:measure-end="0,0"
     inkscape:window-width="1440"
     inkscape:window-height="855"
     inkscape:window-x="0"
     inkscape:window-y="1"
     inkscape:window-maximized="1" />
  <metadata
     id="metadata5">
    <rdf:RDF>
      <cc:Work
         rdf:about="">
        <dc:format>image/svg+xml</dc:format>
        <dc:type
           rdf:resource="http://purl.org/dc/dcmitype/StillImage" />
        <dc:title></dc:title>
      </cc:Work>
    </rdf:RDF>
  </metadata>
  <g
     inkscape:groupmode="layer"
     id="layer2"
     inkscape:label="Logo"
     style="display:inline"
     transform="translate(-11.881692,-11.671287)">
    <path
       sodipodi:type="star"
       id="path126"
       sodipodi:sides="6"
       sodipodi:cx="18.602343"
       sodipodi:cy="19.762747"
       sodipodi:r1="7.3084235"
       sodipodi:r2="6.3292804"
       sodipodi:arg1="0.54486392"
       sodipodi:arg2="1.0684627"
       inkscape:flatsided="true"
       inkscape:rounded="0.1"
       inkscape:randomized="0"
       d="m 24.852491,23.550715 c -0.378797,0.625015 -5.674874,3.534343 -6.405551,3.518803 -0.730677,-0.01554 -5.898268,-3.147413 -6.250148,-3.787969 -0.351881,-0.640555 -0.223394,-6.681756 0.155403,-7.306771 0.378797,-0.625014 5.674873,-3.534343 6.405551,-3.518802 0.730677,0.01554 5.898267,3.147413 6.250148,3.787968 0.35188,0.640555 0.223393,6.681756 -0.155403,7.306771 z"
       style="fill:#19a0db;fill-opacity:1;stroke-width:0.27829969"
       transform="rotate(-3.4350358,26.063652,21.489092)" />
    <path
       transform="rotate(-3.4350358,242.75451,-89.2173)"
       style="fill:#016698;fill-opacity:1;stroke-width:0.27829969"
       d="m 24.852491,23.550715 c -0.378797,0.625015 -5.674874,3.534343 -6.405551,3.518803 -0.730677,-0.01554 -5.898268,-3.147413 -6.250148,-3.787969 -0.351881,-0.640555 -0.223394,-6.681756 0.155403,-7.306771 0.378797,-0.625014 5.674873,-3.534343 6.405551,-3.518802 0.730677,0.01554 5.898267,3.147413 6.250148,3.787968 0.35188,0.640555 0.223393,6.681756 -0.155403,7.306771 z"
       inkscape:randomized="0"
       inkscape:rounded="0.1"
       inkscape:flatsided="true"
       sodipodi:arg2="1.0684627"
       sodipodi:arg1="0.54486392"
       sodipodi:r2="6.3292804"
       sodipodi:r1="7.3084235"
       sodipodi:cy="19.762747"
       sodipodi:cx="18.602343"
       sodipodi:sides="6"
       id="path128"
       sodipodi:type="star" />
    <path
       sodipodi:type="star"
       id="path138"
       sodipodi:sides="6"
       sodipodi:cx="18.602343"
       sodipodi:cy="19.762747"
       sodipodi:r1="7.3084235"
       sodipodi:r2="6.3292804"
       sodipodi:arg1="0.54486392"
       sodipodi:arg2="1.0684627"
       inkscape:flatsided="true"
       inkscape:rounded="0.1"
       inkscape:randomized="0"
       d="m 24.852491,23.550715 c -0.378797,0.625015 -5.674874,3.534343 -6.405551,3.518803 -0.730677,-0.01554 -5.898268,-3.147413 -6.250148,-3.787969 -0.351881,-0.640555 -0.223394,-6.681756 0.155403,-7.306771 0.378797,-0.625014 5.674873,-3.534343 6.405551,-3.518802 0.730677,0.01554 5.898267,3.147413 6.250148,3.787968 0.35188,0.640555 0.223393,6.681756 -0.155403,7.306771 z"
       style="fill:#0d7a9f;fill-opacity:1;stroke-width:0.27829969"
       transform="rotate(-3.4350358,34.94753,-224.67332)" />
    <path
       sodipodi:type="star"
       id="path140"
       sodipodi:sides="6"
       sodipodi:cx="18.602343"
       sodipodi:cy="19.762747"
       sodipodi:r1="7.3084235"
       sodipodi:r2="6.3292804"
       sodipodi:arg1="0.54486392"
       sodipodi:arg2="1.0684627"
       inkscape:flatsided="true"
       inkscape:rounded="0.1"
       inkscape:randomized="0"
       d="m 24.852491,23.550715 c -0.378797,0.625015 -5.674874,3.534343 -6.405551,3.518803 -0.730677,-0.01554 -5.898268,-3.147413 -6.250148,-3.787969 -0.351881,-0.640555 -0.223394,-6.681756 0.155403,-7.306771 0.378797,-0.625014 5.674873,-3.534343 6.405551,-3.518802 0.730677,0.01554 5.898267,3.147413 6.250148,3.787968 0.35188,0.640555 0.223393,6.681756 -0.155403,7.306771 z"
       style="fill:#056489;fill-opacity:1;stroke-width:0.27829969"
       transform="rotate(-3.4350358,248.68087,-336.97103)" />
    <g
       id="g172"
       transform="matrix(1.4933897,0,0,1.4933897,-14.7848,-26.192424)">
      <text
         id="text156"
         y="52.845524"
         x="41.346596"
         style="font-style:normal;font-variant:normal;font-weight:bold;font-stretch:normal;font-size:10.58333302px;line-height:1.25;font-family:Arial;-inkscape-font-specification:'Arial Bold';letter-spacing:0px;word-spacing:0px;fill:#ee3b25;fill-opacity:1;stroke:none;stroke-width:0.26458332"
         xml:space="preserve"><tspan
           style="font-style:normal;font-variant:normal;font-weight:bold;font-stretch:normal;font-family:Arial;-inkscape-font-specification:'Arial Bold';fill:#ee3b25;fill-opacity:1;stroke-width:0.26458332"
           y="52.845524"
           x="41.346596"
           id="tspan154"
           sodipodi:role="line">BE</tspan></text>
      <text
         xml:space="preserve"
         style="font-style:normal;font-variant:normal;font-weight:bold;font-stretch:normal;font-size:10.58333302px;line-height:1.25;font-family:Arial;-inkscape-font-specification:'Arial Bold';letter-spacing:0px;word-spacing:0px;fill:#f79838;fill-opacity:1;stroke:none;stroke-width:0.26458332"
         x="55.740917"
         y="52.845524"
         id="text160"><tspan
           sodipodi:role="line"
           id="tspan158"
           x="55.740917"
           y="52.845524"
           style="font-style:normal;font-variant:normal;font-weight:bold;font-stretch:normal;font-family:Arial;-inkscape-font-specification:'Arial Bold';fill:#f79838;fill-opacity:1;stroke-width:0.26458332">NE</tspan></text>
      <text
         id="text164"
         y="52.736477"
         x="70.026192"
         style="font-style:normal;font-variant:normal;font-weight:bold;font-stretch:normal;font-size:10.58333302px;line-height:1.25;font-family:Arial;-inkscape-font-specification:'Arial Bold';letter-spacing:0px;word-spacing:0px;fill:#19a0db;fill-opacity:1;stroke:none;stroke-width:0.26458332"
         xml:space="preserve"><tspan
           style="font-style:normal;font-variant:normal;font-weight:bold;font-stretch:normal;font-family:Arial;-inkscape-font-specification:'Arial Bold';fill:#19a0db;fill-opacity:1;stroke-width:0.26458332"
           y="52.736477"
           x="70.026192"
           id="tspan162"
           sodipodi:role="line">LUX</tspan></text>
    </g>
    <path
       transform="translate(0,-87.000001)"
       style="display:inline;fill:#005176;fill-opacity:1;stroke-width:0.09003183"
       d="m 32.545508,139.41573 c -1.246886,-0.49212 -4.626379,-2.32896 -5.249367,-2.85317 -0.153363,-0.12904 -0.316887,-0.38186 -0.36525,-0.5647 -0.230883,-0.87284 -0.437652,-4.73178 -0.325432,-6.07357 0.05504,-0.65817 0.104386,-0.83623 0.294256,-1.06188 0.695056,-0.82602 5.363763,-3.6843 6.017938,-3.6843 0.75942,0 5.802918,2.62162 6.328206,3.28941 0.237138,0.30147 0.34985,1.03006 0.473046,3.05783 0.126912,2.08892 0.06192,4.01926 -0.145997,4.33659 -0.476443,0.72714 -5.460206,3.81673 -6.142932,3.80819 -0.136255,-0.002 -0.534265,-0.11618 -0.884468,-0.2544 z"
       id="path134"
       inkscape:connector-curvature="0" />
    <text
       xml:space="preserve"
       style="font-style:normal;font-variant:normal;font-weight:bold;font-stretch:normal;font-size:38.80555725px;line-height:1.25;font-family:Arial;-inkscape-font-specification:'Arial Bold';letter-spacing:0px;word-spacing:0px;fill:#005176;fill-opacity:1;stroke:none;stroke-width:0.26458332"
       x="45.521191"
       y="39.449093"
       id="text215"><tspan
         sodipodi:role="line"
         id="tspan213"
         x="45.521191"
         y="39.449093"
         style="font-style:normal;font-variant:normal;font-weight:bold;font-stretch:normal;font-size:38.80555725px;font-family:Arial;-inkscape-font-specification:'Arial Bold';fill:#005176;fill-opacity:1;stroke-width:0.26458332">PHP</tspan></text>
  </g>
</svg>
